<svg width="27" height="18" viewBox="0 0 27 18" fill="none" xmlns="http://www.w3.org/2000/svg">
<path d="M25.1258 0.827296L9.77852 16.1583L1.84862 8.23756C1.69493 8.08404 1.44595 8.08404 1.29227 8.23756C1.13858 8.39108 1.13858 8.63978 1.29227 8.79329L9.50035 16.9919C9.57412 17.0656 9.67401 17.107 9.77852 17.107C9.88303 17.107 9.98293 17.0656 10.0567 16.9919L25.6821 1.38303C25.8358 1.22951 25.8358 0.980814 25.6821 0.827296C25.5284 0.673779 25.2795 0.673779 25.1258 0.827296Z" fill="#210A0B"/>
<path d="M25.1258 0.827296L9.77852 16.1583L1.84862 8.23756C1.69493 8.08404 1.44595 8.08404 1.29227 8.23756C1.13858 8.39108 1.13858 8.63978 1.29227 8.79329L9.50035 16.9919C9.57412 17.0656 9.67401 17.107 9.77852 17.107C9.88303 17.107 9.98293 17.0656 10.0567 16.9919L25.6821 1.38303C25.8358 1.22951 25.8358 0.980814 25.6821 0.827296C25.5284 0.673779 25.2795 0.673779 25.1258 0.827296Z" fill="white" fill-opacity="0.5"/>
<path d="M25.1258 0.827296L9.77852 16.1583L1.84862 8.23756C1.69493 8.08404 1.44595 8.08404 1.29227 8.23756C1.13858 8.39108 1.13858 8.63978 1.29227 8.79329L9.50035 16.9919C9.57412 17.0656 9.67401 17.107 9.77852 17.107C9.88303 17.107 9.98293 17.0656 10.0567 16.9919L25.6821 1.38303C25.8358 1.22951 25.8358 0.980814 25.6821 0.827296C25.5284 0.673779 25.2795 0.673779 25.1258 0.827296Z" stroke="#210A0B" stroke-width="0.799555"/>
<path d="M25.1258 0.827296L9.77852 16.1583L1.84862 8.23756C1.69493 8.08404 1.44595 8.08404 1.29227 8.23756C1.13858 8.39108 1.13858 8.63978 1.29227 8.79329L9.50035 16.9919C9.57412 17.0656 9.67401 17.107 9.77852 17.107C9.88303 17.107 9.98293 17.0656 10.0567 16.9919L25.6821 1.38303C25.8358 1.22951 25.8358 0.980814 25.6821 0.827296C25.5284 0.673779 25.2795 0.673779 25.1258 0.827296Z" stroke="white" stroke-opacity="0.5" stroke-width="0.799555"/>
</svg>
