<svg width="41" height="41" viewBox="0 0 41 41" fill="none" xmlns="http://www.w3.org/2000/svg">
<path d="M20.4087 40.3633H20.3206C9.30797 40.3633 0.348267 31.4109 0.348267 20.4073V20.3193C0.348267 9.31567 9.30797 0.363281 20.3206 0.363281H20.4087C31.4213 0.363281 40.381 9.31567 40.381 20.3193V20.4073C40.381 31.4109 31.4213 40.3633 20.4087 40.3633ZM20.3206 1.71724C10.0546 1.71724 1.70333 10.0617 1.70333 20.3193V20.4073C1.70333 30.6649 10.0546 39.0093 20.3206 39.0093H20.4087C30.6746 39.0093 39.0259 30.6649 39.0259 20.4073V20.3193C39.0259 10.0617 30.6746 1.71724 20.4087 1.71724H20.3206Z" fill="#EFEFEE"/>
<path d="M31.8323 19.3459C31.3119 13.4805 26.3673 8.86621 20.3644 8.86621C14.0145 8.86621 8.84766 14.0288 8.84766 20.3708C8.84766 22.6996 9.54551 24.87 10.742 26.6829L9.30703 29.8607C8.92896 30.6961 9.60242 31.6249 10.5144 31.5288L15.8574 30.9601C17.2423 31.5504 18.7654 31.8767 20.3644 31.8767C20.7709 31.8767 21.1747 31.8551 21.5704 31.8144C21.9362 31.7752 22.2953 31.7197 22.6504 31.6493C27.8877 30.5905 31.8472 25.968 31.8784 20.4371V20.3708C31.8784 20.0269 31.8635 19.6816 31.8323 19.3459ZM26.7603 17.7807L24.3428 21.5068L23.0637 23.4781C22.7913 23.8979 22.2181 23.998 21.8197 23.6948L19.699 22.089L18.3914 21.0992C18.2857 21.0193 18.138 21.0221 18.035 21.106L14.8262 23.7218C14.3099 24.1429 13.6039 23.5093 13.9657 22.9514L16.2301 19.4636L17.5092 17.4909C17.7816 17.0712 18.3534 16.971 18.7532 17.2729L20.8115 18.8327L22.1192 19.8211C22.2249 19.9023 22.3726 19.8996 22.4755 19.8143L25.8984 17.0103C26.4147 16.5878 27.1234 17.2215 26.7603 17.7807Z" fill="#EFEFEE"/>
</svg>
