<svg width="41" height="41" viewBox="0 0 41 41" fill="none" xmlns="http://www.w3.org/2000/svg">
<path d="M20.4842 40.3633H20.3962C9.38353 40.3633 0.423828 31.4109 0.423828 20.4073V20.3193C0.423828 9.31568 9.38353 0.363281 20.3962 0.363281H20.4842C31.4969 0.363281 40.4566 9.31568 40.4566 20.3193V20.4073C40.4566 31.4109 31.4969 40.3633 20.4842 40.3633ZM20.3962 1.71724C10.1302 1.71724 1.7789 10.0617 1.7789 20.3193V20.4073C1.7789 30.6649 10.1302 39.0093 20.3962 39.0093H20.4842C30.7502 39.0093 39.1015 30.6649 39.1015 20.4073V20.3193C39.1015 10.0617 30.7502 1.71724 20.4842 1.71724H20.3962Z" fill="#EFEFEE"/>
<path d="M23.1329 15.8782V20.0876H28.3445L27.5192 25.758H23.1329V38.8224C22.2534 38.9442 21.3537 39.0079 20.4404 39.0079C19.3861 39.0079 18.3508 38.9239 17.3427 38.7615V25.758H12.5363V20.0876H17.3427V14.9372C17.3427 11.7419 19.9349 9.15039 23.1342 9.15039V9.1531C23.1437 9.1531 23.1518 9.15039 23.1613 9.15039H28.3458V14.0544H24.9582C23.9513 14.0544 23.1342 14.8709 23.1342 15.8768L23.1329 15.8782Z" fill="#EFEFEE"/>
</svg>
