<svg width="41" height="41" viewBox="0 0 41 41" fill="none" xmlns="http://www.w3.org/2000/svg">
<path d="M20.3104 40.3633H20.2223C9.20972 40.3633 0.25 31.4109 0.25 20.4073V20.3193C0.25 9.31567 9.20972 0.363281 20.2223 0.363281H20.3104C31.323 0.363281 40.2827 9.31567 40.2827 20.3193V20.4073C40.2827 31.4109 31.323 40.3633 20.3104 40.3633ZM20.2223 1.71724C9.95636 1.71724 1.60507 10.0617 1.60507 20.3193V20.4073C1.60507 30.6649 9.95636 39.0093 20.2223 39.0093H20.3104C30.5764 39.0093 38.9277 30.6649 38.9277 20.4073V20.3193C38.9277 10.0617 30.5764 1.71724 20.3104 1.71724H20.2223Z" fill="#EFEFEE"/>
<path d="M10.1505 13.8839C9.64095 13.4114 9.38757 12.8265 9.38757 12.1306C9.38757 11.4346 9.64231 10.824 10.1505 10.3501C10.66 9.87757 11.3158 9.64062 12.1194 9.64062C12.9229 9.64062 13.553 9.87757 14.0612 10.3501C14.5707 10.8226 14.8241 11.417 14.8241 12.1306C14.8241 12.8441 14.5693 13.4114 14.0612 13.8839C13.5517 14.3565 12.9053 14.5934 12.1194 14.5934C11.3334 14.5934 10.66 14.3565 10.1505 13.8839ZM14.3959 16.5946V31.0819H9.81441V16.5946H14.3959Z" fill="#EFEFEE"/>
<path d="M29.6475 18.0271C30.6462 19.1103 31.1448 20.5969 31.1448 22.4898V30.8274H26.7937V23.0774C26.7937 22.1228 26.5458 21.3809 26.0512 20.8528C25.5566 20.3248 24.8899 20.0594 24.0551 20.0594C23.2204 20.0594 22.5537 20.3234 22.0591 20.8528C21.5645 21.3809 21.3165 22.1228 21.3165 23.0774V30.8274H16.9397V16.5554H21.3165V18.4482C21.7596 17.8172 22.3573 17.319 23.108 16.9521C23.8587 16.5851 24.7029 16.4023 25.6419 16.4023C27.3141 16.4023 28.6501 16.9439 29.6475 18.0271Z" fill="#EFEFEE"/>
</svg>
