<svg width="41" height="41" viewBox="0 0 41 41" fill="none" xmlns="http://www.w3.org/2000/svg">
<path d="M20.376 40.3633H20.2879C9.27524 40.3633 0.315552 31.4109 0.315552 20.4073V20.3193C0.315552 9.31564 9.27524 0.363281 20.2879 0.363281H20.376C31.3886 0.363281 40.3483 9.31564 40.3483 20.3193V20.4073C40.3483 31.4109 31.3886 40.3633 20.376 40.3633ZM20.2879 1.71724C10.0219 1.71724 1.67062 10.0617 1.67062 20.3193V20.4073C1.67062 30.6649 10.0219 39.0093 20.2879 39.0093H20.376C30.642 39.0093 38.9932 30.6649 38.9932 20.4073V20.3193C38.9932 10.0617 30.642 1.71724 20.376 1.71724H20.2879Z" fill="#EFEFEE"/>
<path d="M8.31845 19.6993C8.37266 19.6722 8.42688 19.6464 8.47973 19.6221C9.39847 19.1969 10.3294 18.7989 11.259 18.4008C11.3091 18.4008 11.3931 18.3426 11.4405 18.3236C11.5124 18.2925 11.5842 18.2627 11.656 18.2315C11.7942 18.172 11.9324 18.1137 12.0693 18.0542C12.3457 17.9364 12.6208 17.8186 12.8972 17.7008C13.4487 17.4652 14.0002 17.2296 14.5518 16.9927C15.6548 16.5215 16.7592 16.049 17.8622 15.5778C18.9652 15.1066 20.0696 14.6341 21.1726 14.1629C22.2757 13.6917 23.38 13.2192 24.483 12.748C25.5861 12.2768 26.6905 11.8043 27.7935 11.3331C28.0388 11.2275 28.3044 11.0705 28.5672 11.0244C28.7881 10.9852 29.0035 10.9094 29.2258 10.8674C29.6472 10.7875 30.112 10.755 30.5158 10.9297C30.6554 10.9906 30.7841 11.0759 30.8912 11.1828C31.4034 11.6892 31.3316 12.5206 31.2231 13.2327C30.4684 18.1964 29.7136 23.1613 28.9575 28.1249C28.8545 28.806 28.7136 29.5534 28.1756 29.9839C27.7203 30.3481 27.0726 30.3887 26.5102 30.2344C25.9479 30.0787 25.4519 29.7524 24.9655 29.4315C22.9478 28.0965 20.9287 26.7615 18.911 25.4265C18.4313 25.1096 17.8974 24.6953 17.9029 24.1199C17.9056 23.7733 18.1129 23.4646 18.3243 23.1897C20.0777 20.9042 22.6076 19.3337 24.4898 17.1538C24.7554 16.8465 24.9641 16.2913 24.5996 16.114C24.3828 16.0084 24.1334 16.1519 23.9356 16.2886C21.4477 18.0149 18.9612 19.7426 16.4733 21.4689C15.6616 22.0321 14.8106 22.6116 13.8322 22.7497C12.9569 22.8743 12.0761 22.6305 11.2292 22.3814C10.5191 22.1729 9.81039 21.959 9.1044 21.7383C8.72905 21.6218 8.34149 21.4959 8.05151 21.2319C7.76153 20.9679 7.59488 20.5238 7.76968 20.1718C7.87944 19.9511 8.09219 19.8116 8.31577 19.6979L8.31845 19.6993Z" fill="#EFEFEE"/>
</svg>
