<svg width="41" height="41" viewBox="0 0 41 41" fill="none" xmlns="http://www.w3.org/2000/svg">
<path d="M20.1039 40.3633H20.0158C9.00316 40.3633 0.043457 31.4109 0.043457 20.4073V20.3193C0.043457 9.31564 9.00316 0.363281 20.0158 0.363281H20.1039C31.1165 0.363281 40.0762 9.31564 40.0762 20.3193V20.4073C40.0762 31.4109 31.1165 40.3633 20.1039 40.3633ZM20.0158 1.71724C9.74981 1.71724 1.39852 10.0617 1.39852 20.3193V20.4073C1.39852 30.6649 9.74981 39.0093 20.0158 39.0093H20.1039C30.3699 39.0093 38.7211 30.6649 38.7211 20.4073V20.3193C38.7211 10.0617 30.3699 1.71724 20.1039 1.71724H20.0158Z" fill="#EFEFEE"/>
<path d="M26.0431 8.90039H14.0751C10.7688 8.90039 8.07898 11.588 8.07898 14.8917V25.8316C8.07898 29.1353 10.7688 31.8229 14.0751 31.8229H26.0431C29.3494 31.8229 32.0392 29.1353 32.0392 25.8316V14.8917C32.0392 11.588 29.3494 8.90039 26.0431 8.90039ZM10.1942 14.8917C10.1942 12.7538 11.9355 11.0139 14.0751 11.0139H26.0431C28.1827 11.0139 29.924 12.7538 29.924 14.8917V25.8316C29.924 27.9695 28.1827 29.7094 26.0431 29.7094H14.0751C11.9355 29.7094 10.1942 27.9695 10.1942 25.8316V14.8917Z" fill="#EFEFEE"/>
<path d="M20.0587 25.9339C23.1333 25.9339 25.6361 23.4345 25.6361 20.361C25.6361 17.2875 23.1347 14.7881 20.0587 14.7881C16.9827 14.7881 14.4812 17.2875 14.4812 20.361C14.4812 23.4345 16.9827 25.9339 20.0587 25.9339ZM20.0587 16.903C21.9679 16.903 23.5209 18.4546 23.5209 20.3623C23.5209 22.2701 21.9679 23.8217 20.0587 23.8217C18.1494 23.8217 16.5965 22.2701 16.5965 20.3623C16.5965 18.4546 18.1494 16.903 20.0587 16.903Z" fill="#EFEFEE"/>
<path d="M26.1533 15.6896C26.9812 15.6896 27.656 15.0167 27.656 14.1881C27.656 13.3595 26.9826 12.6865 26.1533 12.6865C25.324 12.6865 24.6505 13.3595 24.6505 14.1881C24.6505 15.0167 25.324 15.6896 26.1533 15.6896Z" fill="#EFEFEE"/>
</svg>
