<svg width="41" height="41" viewBox="0 0 41 41" fill="none" xmlns="http://www.w3.org/2000/svg">
<path d="M20.3431 40.3633H20.2551C9.24242 40.3633 0.282715 31.4109 0.282715 20.4073V20.3193C0.282715 9.31564 9.24242 0.363281 20.2551 0.363281H20.3431C31.3558 0.363281 40.3155 9.31564 40.3155 20.3193V20.4073C40.3155 31.4109 31.3558 40.3633 20.3431 40.3633ZM20.2551 1.71724C9.98906 1.71724 1.63778 10.0617 1.63778 20.3193V20.4073C1.63778 30.6649 9.98906 39.0093 20.2551 39.0093H20.3431C30.6091 39.0093 38.9604 30.6649 38.9604 20.4073V20.3193C38.9604 10.0617 30.6091 1.71724 20.3431 1.71724H20.2551Z" fill="#EFEFEE"/>
<path d="M25.5506 30.7545C16.7677 30.141 10.1222 22.4998 10.7341 13.7239C10.8922 11.4996 12.8317 9.81722 15.0533 9.9724C15.2817 9.98835 15.5063 10.0234 15.72 10.0769C16.1905 10.1894 16.6313 10.382 17.0302 10.6537C17.0878 10.6939 17.1246 10.7544 17.1296 10.8224L17.6484 16.732C17.6556 16.8025 17.6292 16.8683 17.58 16.9155C17.0282 17.4467 16.3457 17.8095 15.6029 17.9628L15.245 18.0367L15.3535 18.3847C16.3376 21.5144 18.6052 24.1183 21.5721 25.5326L21.9017 25.6908L22.0248 25.3469C22.2801 24.6333 22.7346 24.0084 23.3378 23.5363C23.3814 23.5008 23.4381 23.4854 23.4934 23.4893C23.5054 23.4901 23.5174 23.491 23.5317 23.4944L29.3164 24.8303C29.3852 24.8472 29.4403 24.8896 29.4721 24.9522C29.6835 25.3846 29.8128 25.8498 29.8612 26.3312C29.8849 26.5453 29.8861 26.7699 29.8698 27.0029C29.7142 29.2251 27.7771 30.9076 25.5506 30.7545Z" fill="#EFEFEE"/>
</svg>
