<svg width="41" height="41" viewBox="0 0 41 41" fill="none" xmlns="http://www.w3.org/2000/svg">
<path d="M20.3104 40.3633H20.2223C9.20971 40.3633 0.25 31.4109 0.25 20.4073V20.3193C0.25 9.31564 9.20971 0.363281 20.2223 0.363281H20.3104C31.3231 0.363281 40.2828 9.31564 40.2828 20.3193V20.4073C40.2828 31.4109 31.3231 40.3633 20.3104 40.3633ZM20.2223 1.71724C9.95635 1.71724 1.60507 10.0617 1.60507 20.3193V20.4073C1.60507 30.6649 9.95635 39.0093 20.2223 39.0093H20.3104C30.5764 39.0093 38.9277 30.6649 38.9277 20.4073V20.3193C38.9277 10.0617 30.5764 1.71724 20.3104 1.71724H20.2223Z" fill="#EFEFEE"/>
<path d="M24.0373 26.0103C19.0872 26.0103 15.0599 21.9849 15.0586 17.0389C15.0599 15.7852 16.0817 14.7656 17.3338 14.7656C17.4625 14.7656 17.5899 14.7765 17.7118 14.7981C17.9801 14.8428 18.2349 14.9335 18.4693 15.0703C18.5032 15.0906 18.5262 15.1231 18.5316 15.161L19.0547 18.4552C19.0615 18.4944 19.0493 18.5323 19.0235 18.5608C18.7349 18.8803 18.3663 19.1105 17.9557 19.2256L17.7579 19.2811L17.8324 19.472C18.5072 21.1888 19.8813 22.5604 21.6009 23.2374L21.7919 23.3132L21.8475 23.1155C21.9627 22.7053 22.193 22.337 22.5128 22.0486C22.5359 22.0269 22.567 22.0161 22.5982 22.0161C22.605 22.0161 22.6117 22.0161 22.6199 22.0174L25.9167 22.5401C25.956 22.5468 25.9886 22.5685 26.0089 22.6024C26.1444 22.8366 26.2352 23.0925 26.2813 23.3606C26.303 23.4797 26.3124 23.6056 26.3124 23.737C26.3124 24.9894 25.2921 26.0089 24.0373 26.0103Z" fill="#EFEFEE"/>
<path d="M32.8152 19.2793C32.5483 16.2654 31.1661 13.4695 28.9235 11.4074C26.6673 9.33317 23.7403 8.19043 20.6792 8.19043C13.9608 8.19043 8.49445 13.6523 8.49445 20.3652C8.49445 22.6182 9.11641 24.813 10.294 26.7247L7.66785 32.5332L16.076 31.6383C17.5382 32.2367 19.0856 32.54 20.6779 32.54C21.0966 32.54 21.5261 32.5183 21.957 32.4736C22.3365 32.433 22.72 32.3735 23.0967 32.2977C28.7229 31.1617 32.8301 26.1723 32.8626 20.4302V20.3652C32.8626 19.9996 32.8464 19.6341 32.8138 19.2807L32.8152 19.2793ZM16.3999 29.0888L11.748 29.5843L13.1369 26.5095L12.8591 26.1371C12.8388 26.1101 12.8185 26.083 12.7954 26.0518C11.5894 24.3878 10.9525 22.4219 10.9525 20.3666C10.9525 15.0076 15.3158 10.6479 20.6792 10.6479C25.7038 10.6479 29.9628 14.5649 30.3734 19.565C30.395 19.8331 30.4072 20.1025 30.4072 20.3679C30.4072 20.4437 30.4059 20.5182 30.4045 20.5981C30.3015 25.081 27.1673 28.8884 22.7823 29.8578C22.4476 29.9323 22.1047 29.9892 21.7633 30.0257C21.4082 30.0663 21.0437 30.0866 20.6819 30.0866C19.3933 30.0866 18.1412 29.8375 16.9582 29.3447C16.8268 29.2919 16.698 29.235 16.5774 29.1768L16.4013 29.0915L16.3999 29.0888Z" fill="#EFEFEE"/>
</svg>
