<svg width="41" height="41" viewBox="0 0 41 41" fill="none" xmlns="http://www.w3.org/2000/svg">
<path d="M20.8533 40.3633C9.81581 40.3633 0.836914 31.3917 0.836914 20.3633C0.836914 9.33484 9.81581 0.363281 20.8533 0.363281C31.8907 0.363281 40.8696 9.33484 40.8696 20.3633C40.8696 31.3917 31.8907 40.3633 20.8533 40.3633ZM20.8533 1.72096C10.5659 1.72096 2.19571 10.0843 2.19571 20.3633C2.19571 30.6423 10.5659 39.0056 20.8533 39.0056C31.1407 39.0056 39.5108 30.6423 39.5108 20.3633C39.5108 10.0843 31.1407 1.72096 20.8533 1.72096Z" fill="#EFEFEE"/>
<path d="M33.0278 16.3585C32.8757 14.8908 32.5482 13.2684 31.343 12.4158C30.4095 11.7546 29.1825 11.7301 28.037 11.7315C25.6156 11.7328 23.1929 11.7356 20.7715 11.7369C18.4426 11.7396 16.1136 11.741 13.7846 11.7437C12.8117 11.7451 11.866 11.6691 10.9624 12.0899C10.1865 12.4511 9.57917 13.138 9.21365 13.9024C8.70682 14.9655 8.60084 16.1698 8.5397 17.3455C8.42692 19.4866 8.43915 21.6331 8.57367 23.7728C8.67286 25.3341 8.92423 27.0597 10.1322 28.0549C11.2029 28.936 12.7139 28.9795 14.1026 28.9808C18.5105 28.9849 22.9198 28.989 27.3291 28.9917C27.8943 28.9931 28.484 28.9822 29.0602 28.9197C30.1934 28.7975 31.2736 28.4731 32.0019 27.634C32.7371 26.7882 32.9259 25.6111 33.0374 24.4964C33.3091 21.7919 33.3064 19.0616 33.0278 16.3585ZM18.2224 24.1529V16.5703L24.7936 20.3609L18.2224 24.1529Z" fill="#EFEFEE"/>
</svg>
