<svg width="41" height="41" viewBox="0 0 41 41" fill="none" xmlns="http://www.w3.org/2000/svg">
<path d="M20.6908 40.3633H20.6027C9.59008 40.3633 0.630371 31.4109 0.630371 20.4073V20.3193C0.630371 9.31564 9.59008 0.363281 20.6027 0.363281H20.6908C31.7034 0.363281 40.6631 9.31564 40.6631 20.3193V20.4073C40.6631 31.4109 31.7034 40.3633 20.6908 40.3633ZM20.6027 1.71724C10.3367 1.71724 1.98544 10.0617 1.98544 20.3193V20.4073C1.98544 30.6649 10.3367 39.0093 20.6027 39.0093H20.6908C30.9568 39.0093 39.3081 30.6649 39.3081 20.4073V20.3193C39.3081 10.0617 30.9568 1.71724 20.6908 1.71724H20.6027Z" fill="#EFEFEE"/>
<path d="M9.15127 9.79004L18.0703 21.7049L9.0957 31.3925H11.1161L18.9741 22.9113L25.3226 31.3925H32.1969L22.7764 18.8074L31.1304 9.79004H29.11L21.874 17.6011L16.0269 9.79004H9.15261H9.15127ZM12.1216 11.2767H15.2789L29.2239 29.9058H26.0666L12.1216 11.2767Z" fill="#EFEFEE"/>
</svg>
