<svg width="41" height="41" viewBox="0 0 41 41" fill="none" xmlns="http://www.w3.org/2000/svg">
<path d="M20.4414 40.3633H20.3533C9.34069 40.3633 0.380981 31.4109 0.380981 20.4073V20.3193C0.380981 9.31564 9.34069 0.363281 20.3533 0.363281H20.4414C31.454 0.363281 40.4137 9.31564 40.4137 20.3193V20.4073C40.4137 31.4109 31.454 40.3633 20.4414 40.3633ZM20.3533 1.71724C10.0873 1.71724 1.73605 10.0617 1.73605 20.3193V20.4073C1.73605 30.6649 10.0873 39.0093 20.3533 39.0093H20.4414C30.7074 39.0093 39.0587 30.6649 39.0587 20.4073V20.3193C39.0587 10.0617 30.7074 1.71724 20.4414 1.71724H20.3533Z" fill="#EFEFEE"/>
<path d="M26.3822 8.90234H14.4143C11.1079 8.90234 8.41809 11.59 8.41809 14.8936V25.8336C8.41809 29.1372 11.1079 31.8249 14.4143 31.8249H26.3822C29.6885 31.8249 32.3784 29.1372 32.3784 25.8336V14.8936C32.3784 11.59 29.6885 8.90234 26.3822 8.90234ZM10.5333 14.8936C10.5333 12.7557 12.2746 11.0159 14.4143 11.0159H26.3822C28.5218 11.0159 30.2631 12.7557 30.2631 14.8936V25.8336C30.2631 27.9715 28.5218 29.7113 26.3822 29.7113H14.4143C12.2746 29.7113 10.5333 27.9715 10.5333 25.8336V14.8936Z" fill="#EFEFEE"/>
<path d="M20.3985 25.9378C23.4731 25.9378 25.976 23.4384 25.976 20.3649C25.976 17.2914 23.4745 14.792 20.3985 14.792C17.3225 14.792 14.821 17.2914 14.821 20.3649C14.821 23.4384 17.3225 25.9378 20.3985 25.9378ZM20.3985 16.9069C22.3078 16.9069 23.8607 18.4585 23.8607 20.3662C23.8607 22.274 22.3078 23.8256 20.3985 23.8256C18.4892 23.8256 16.9363 22.274 16.9363 20.3662C16.9363 18.4585 18.4892 16.9069 20.3985 16.9069Z" fill="#EFEFEE"/>
<path d="M26.4915 15.6925C27.3195 15.6925 27.9943 15.0196 27.9943 14.191C27.9943 13.3624 27.3208 12.6895 26.4915 12.6895C25.6622 12.6895 24.9888 13.3624 24.9888 14.191C24.9888 15.0196 25.6622 15.6925 26.4915 15.6925Z" fill="#EFEFEE"/>
</svg>
