<svg width="41" height="41" viewBox="0 0 41 41" fill="none" xmlns="http://www.w3.org/2000/svg">
<path d="M20.2777 40.3633H20.1896C9.17699 40.3633 0.217285 31.4109 0.217285 20.4073V20.3193C0.217285 9.31564 9.17699 0.363281 20.1896 0.363281H20.2777C31.2903 0.363281 40.25 9.31564 40.25 20.3193V20.4073C40.25 31.4109 31.2903 40.3633 20.2777 40.3633ZM20.1896 1.71724C9.92363 1.71724 1.57235 10.0617 1.57235 20.3193V20.4073C1.57235 30.6649 9.92363 39.0093 20.1896 39.0093H20.2777C30.5437 39.0093 38.895 30.6649 38.895 20.4073V20.3193C38.895 10.0617 30.5437 1.71724 20.2777 1.71724H20.1896Z" fill="#EFEFEE"/>
<path d="M29.584 15.0226V18.6715C28.9458 18.6092 28.1165 18.4643 27.1991 18.1286C26.0012 17.6899 25.1096 17.0901 24.5256 16.6257V24.0007L24.5107 23.9777C24.5201 24.1239 24.5256 24.2728 24.5256 24.4231C24.5256 28.0856 21.5431 31.067 17.8762 31.067C14.2094 31.067 11.2269 28.0856 11.2269 24.4231C11.2269 20.7607 14.2094 17.7779 17.8762 17.7779C18.2353 17.7779 18.5877 17.8063 18.9318 17.8618V21.458C18.6012 21.3402 18.2462 21.2765 17.8762 21.2765C16.1404 21.2765 14.7271 22.6873 14.7271 24.4231C14.7271 26.1589 16.1404 27.5697 17.8762 27.5697C19.6121 27.5697 21.0254 26.1575 21.0254 24.4231C21.0254 24.3581 21.0241 24.2931 21.02 24.2282V9.89648H24.6692C24.6827 10.2052 24.6949 10.5166 24.7085 10.8253C24.7329 11.4332 24.9497 12.0168 25.3278 12.4948C25.7709 13.0566 26.4254 13.7092 27.3441 14.2305C28.2046 14.7166 29.0122 14.9265 29.584 15.0253V15.0226Z" fill="#EFEFEE"/>
</svg>
