<svg width="4" height="10" viewBox="0 0 4 10" fill="none" xmlns="http://www.w3.org/2000/svg">
<path d="M0.705729 0.932617L3.04419 4.62005V6.10645L0.705729 9.79388L0.705729 8.53615L2.14704 5.33466L0.705729 2.13318V0.932617Z" fill="#210A0B"/>
<path d="M0.705729 0.932617L3.04419 4.62005V6.10645L0.705729 9.79388L0.705729 8.53615L2.14704 5.33466L0.705729 2.13318V0.932617Z" fill="white"/>
<path d="M0.705729 0.932617L3.04419 4.62005V6.10645L0.705729 9.79388L0.705729 8.53615L2.14704 5.33466L0.705729 2.13318V0.932617Z" fill="#210A0B"/>
<path d="M0.705729 0.932617L3.04419 4.62005V6.10645L0.705729 9.79388L0.705729 8.53615L2.14704 5.33466L0.705729 2.13318V0.932617Z" fill="#210A0B"/>
<path d="M0.705729 0.932617L3.04419 4.62005V6.10645L0.705729 9.79388L0.705729 8.53615L2.14704 5.33466L0.705729 2.13318V0.932617Z" fill="#210A0B"/>
<path d="M0.705729 0.932617L3.04419 4.62005V6.10645L0.705729 9.79388L0.705729 8.53615L2.14704 5.33466L0.705729 2.13318V0.932617Z" fill="#210A0B"/>
<path d="M0.705729 0.932617L3.04419 4.62005V6.10645L0.705729 9.79388L0.705729 8.53615L2.14704 5.33466L0.705729 2.13318V0.932617Z" fill="black"/>
<path d="M0.705729 0.932617L3.04419 4.62005V6.10645L0.705729 9.79388L0.705729 8.53615L2.14704 5.33466L0.705729 2.13318V0.932617Z" fill="white"/>
<path d="M0.705729 0.932617L3.04419 4.62005V6.10645L0.705729 9.79388L0.705729 8.53615L2.14704 5.33466L0.705729 2.13318V0.932617Z" fill="white"/>
</svg>
