<svg width="3" height="10" viewBox="0 0 3 10" fill="none" xmlns="http://www.w3.org/2000/svg">
<path d="M2.75155 9.79395L0.413086 6.10652L0.413086 4.62011L2.75155 0.932681V2.19041L1.31023 5.3919L2.75155 8.59339V9.79395Z" fill="#210A0B"/>
<path d="M2.75155 9.79395L0.413086 6.10652L0.413086 4.62011L2.75155 0.932681V2.19041L1.31023 5.3919L2.75155 8.59339V9.79395Z" fill="white"/>
<path d="M2.75155 9.79395L0.413086 6.10652L0.413086 4.62011L2.75155 0.932681V2.19041L1.31023 5.3919L2.75155 8.59339V9.79395Z" fill="#210A0B"/>
<path d="M2.75155 9.79395L0.413086 6.10652L0.413086 4.62011L2.75155 0.932681V2.19041L1.31023 5.3919L2.75155 8.59339V9.79395Z" fill="#210A0B"/>
<path d="M2.75155 9.79395L0.413086 6.10652L0.413086 4.62011L2.75155 0.932681V2.19041L1.31023 5.3919L2.75155 8.59339V9.79395Z" fill="#210A0B"/>
<path d="M2.75155 9.79395L0.413086 6.10652L0.413086 4.62011L2.75155 0.932681V2.19041L1.31023 5.3919L2.75155 8.59339V9.79395Z" fill="#210A0B"/>
<path d="M2.75155 9.79395L0.413086 6.10652L0.413086 4.62011L2.75155 0.932681V2.19041L1.31023 5.3919L2.75155 8.59339V9.79395Z" fill="black"/>
<path d="M2.75155 9.79395L0.413086 6.10652L0.413086 4.62011L2.75155 0.932681V2.19041L1.31023 5.3919L2.75155 8.59339V9.79395Z" fill="white"/>
<path d="M2.75155 9.79395L0.413086 6.10652L0.413086 4.62011L2.75155 0.932681V2.19041L1.31023 5.3919L2.75155 8.59339V9.79395Z" fill="white"/>
</svg>
