<svg width="14" height="4" viewBox="0 0 14 4" fill="none" xmlns="http://www.w3.org/2000/svg">
<path d="M13.646 0.00012163L8.11485 3.50781L5.88524 3.50781L0.354099 0.000120468L2.24069 0.000120633L7.04292 2.16209L11.8452 0.000121473L13.646 0.00012163Z" fill="white"/>
<path d="M13.646 0.00012163L8.11485 3.50781L5.88524 3.50781L0.354099 0.000120468L2.24069 0.000120633L7.04292 2.16209L11.8452 0.000121473L13.646 0.00012163Z" fill="white"/>
<path d="M13.646 0.00012163L8.11485 3.50781L5.88524 3.50781L0.354099 0.000120468L2.24069 0.000120633L7.04292 2.16209L11.8452 0.000121473L13.646 0.00012163Z" fill="white"/>
<path d="M13.646 0.00012163L8.11485 3.50781L5.88524 3.50781L0.354099 0.000120468L2.24069 0.000120633L7.04292 2.16209L11.8452 0.000121473L13.646 0.00012163Z" fill="white"/>
<path d="M13.646 0.00012163L8.11485 3.50781L5.88524 3.50781L0.354099 0.000120468L2.24069 0.000120633L7.04292 2.16209L11.8452 0.000121473L13.646 0.00012163Z" fill="white"/>
<path d="M13.646 0.00012163L8.11485 3.50781L5.88524 3.50781L0.354099 0.000120468L2.24069 0.000120633L7.04292 2.16209L11.8452 0.000121473L13.646 0.00012163Z" fill="white"/>
<path d="M13.646 0.00012163L8.11485 3.50781L5.88524 3.50781L0.354099 0.000120468L2.24069 0.000120633L7.04292 2.16209L11.8452 0.000121473L13.646 0.00012163Z" fill="white"/>
<path d="M13.646 0.00012163L8.11485 3.50781L5.88524 3.50781L0.354099 0.000120468L2.24069 0.000120633L7.04292 2.16209L11.8452 0.000121473L13.646 0.00012163Z" fill="white"/>
<path d="M13.646 0.00012163L8.11485 3.50781L5.88524 3.50781L0.354099 0.000120468L2.24069 0.000120633L7.04292 2.16209L11.8452 0.000121473L13.646 0.00012163Z" fill="#210A0B"/>
</svg>
