<svg width="38" height="38" viewBox="0 0 38 38" fill="none" xmlns="http://www.w3.org/2000/svg">
<path d="M6.54521 10.0563C6.54521 10.1144 6.56827 10.17 6.60931 10.2111C6.65035 10.2521 6.70601 10.2752 6.76405 10.2752H9.8629V13.3741C9.8629 13.4321 9.88596 13.4878 9.927 13.5288C9.96804 13.5699 10.0237 13.5929 10.0817 13.5929C10.1398 13.5929 10.1955 13.5699 10.2365 13.5288C10.2775 13.4878 10.3006 13.4321 10.3006 13.3741V10.2752H13.4738C13.5319 10.2752 13.5875 10.2521 13.6286 10.2111C13.6696 10.17 13.6927 10.1144 13.6927 10.0563C13.6927 9.99828 13.6696 9.94262 13.6286 9.90158C13.5875 9.86053 13.5319 9.83748 13.4738 9.83748H10.3006V6.66416C10.3006 6.60612 10.2775 6.55045 10.2365 6.50941C10.1955 6.46837 10.1398 6.44531 10.0817 6.44531C10.0237 6.44531 9.96804 6.46837 9.927 6.50941C9.88596 6.55045 9.8629 6.60612 9.8629 6.66416V9.8331H6.76405C6.73494 9.83309 6.70612 9.8389 6.67928 9.85017C6.65244 9.86144 6.62812 9.87795 6.60774 9.89874C6.58736 9.91953 6.57133 9.94417 6.56059 9.97123C6.54986 9.99829 6.54463 10.0272 6.54521 10.0563Z" fill="white" stroke="#210A0B" stroke-width="0.6"/>
<path d="M31.2013 9.88672H24.474C24.4159 9.88672 24.3603 9.90978 24.3192 9.95082C24.2782 9.99186 24.2551 10.0475 24.2551 10.1056C24.2551 10.1636 24.2782 10.2193 24.3192 10.2603C24.3603 10.3014 24.4159 10.3244 24.474 10.3244H31.2013C31.2593 10.3244 31.315 10.3014 31.356 10.2603C31.3971 10.2193 31.4201 10.1636 31.4201 10.1056C31.4201 10.0475 31.3971 9.99186 31.356 9.95082C31.315 9.90978 31.2593 9.88672 31.2013 9.88672Z" fill="white" stroke="#210A0B" stroke-width="0.6"/>
<path d="M7.59574 30.3918C7.61608 30.4123 7.64029 30.4286 7.66696 30.4397C7.69363 30.4508 7.72223 30.4565 7.75112 30.4565C7.78001 30.4565 7.80861 30.4508 7.83528 30.4397C7.86195 30.4286 7.88616 30.4123 7.9065 30.3918L10.1168 28.1814L12.3272 30.3918C12.3684 30.433 12.4243 30.4562 12.4825 30.4562C12.5408 30.4562 12.5967 30.433 12.6379 30.3918C12.6791 30.3506 12.7023 30.2947 12.7023 30.2364C12.7023 30.1781 12.6791 30.1223 12.6379 30.081L10.4276 27.8707L12.6379 25.6603C12.6791 25.6191 12.7023 25.5632 12.7023 25.5049C12.7023 25.4466 12.6791 25.3907 12.6379 25.3495C12.5967 25.3083 12.5408 25.2852 12.4825 25.2852C12.4243 25.2852 12.3684 25.3083 12.3272 25.3495L10.1168 27.5599L7.9065 25.3495C7.86529 25.3083 7.8094 25.2852 7.75112 25.2852C7.69284 25.2852 7.63695 25.3083 7.59574 25.3495C7.55453 25.3907 7.53138 25.4466 7.53138 25.5049C7.53138 25.5632 7.55453 25.6191 7.59574 25.6603L9.80607 27.8707L7.59574 30.081C7.57523 30.1014 7.55895 30.1256 7.54784 30.1523C7.53673 30.1789 7.53101 30.2075 7.53101 30.2364C7.53101 30.2653 7.53673 30.2939 7.54784 30.3206C7.55895 30.3473 7.57523 30.3715 7.59574 30.3918Z" fill="white" stroke="#210A0B" stroke-width="0.6"/>
<path d="M24.4916 26.3557H31.2013C31.2594 26.3557 31.315 26.3326 31.3561 26.2916C31.3971 26.2505 31.4202 26.1949 31.4202 26.1368C31.4202 26.0788 31.3971 26.0231 31.3561 25.9821C31.315 25.941 31.2594 25.918 31.2013 25.918H24.4916C24.4335 25.918 24.3778 25.941 24.3368 25.9821C24.2958 26.0231 24.2727 26.0788 24.2727 26.1368C24.2727 26.1949 24.2958 26.2505 24.3368 26.2916C24.3778 26.3326 24.4335 26.3557 24.4916 26.3557Z" fill="white" stroke="#210A0B" stroke-width="0.6"/>
<path d="M24.4916 29.8064H31.2013C31.2594 29.8064 31.315 29.7833 31.3561 29.7423C31.3971 29.7012 31.4202 29.6455 31.4202 29.5875C31.4202 29.5295 31.3971 29.4738 31.3561 29.4328C31.315 29.3917 31.2594 29.3687 31.2013 29.3687H24.4916C24.4335 29.3687 24.3778 29.3917 24.3368 29.4328C24.2958 29.4738 24.2727 29.5295 24.2727 29.5875C24.2727 29.6455 24.2958 29.7012 24.3368 29.7423C24.3778 29.7833 24.4335 29.8064 24.4916 29.8064Z" fill="white" stroke="#210A0B" stroke-width="0.6"/>
<path d="M33.3891 1.00195H11.2244C11.1664 1.00195 11.1107 1.02501 11.0697 1.06605C11.0286 1.10709 11.0056 1.16276 11.0056 1.2208C11.0056 1.27885 11.0286 1.33451 11.0697 1.37555C11.1107 1.41659 11.1664 1.43965 11.2244 1.43965H18.7658V18.755H1.43769V4.65674C1.43885 3.81664 1.77308 3.01128 2.36711 2.41724C2.96114 1.8232 3.76648 1.48896 4.60657 1.4878H7.42967C7.48771 1.4878 7.54337 1.46474 7.58441 1.4237C7.62545 1.38266 7.64851 1.32699 7.64851 1.26895C7.64851 1.21091 7.62545 1.15524 7.58441 1.1142C7.54337 1.07316 7.48771 1.0501 7.42967 1.0501H4.58468C3.63232 1.05703 2.72125 1.43993 2.04986 2.11543C1.37847 2.79093 1.00113 3.70433 1 4.65674V33.3917C1.00116 34.3479 1.38151 35.2645 2.05762 35.9407C2.73373 36.6168 3.6504 36.9972 4.60657 36.9983H33.3891C34.346 36.9983 35.2638 36.6185 35.9408 35.9422C36.6179 35.266 36.9988 34.3486 37 33.3917V4.58671C36.9931 3.63356 36.6096 2.72182 35.9331 2.05029C35.2567 1.37877 34.3422 1.00193 33.3891 1.00195ZM18.7658 36.565H4.58468C3.74764 36.5581 2.94724 36.2207 2.35781 35.6263C1.76838 35.0319 1.43766 34.2288 1.43769 33.3917V19.1927H18.7658V36.565ZM36.5623 33.3917C36.5623 34.2333 36.228 35.0404 35.6329 35.6355C35.0378 36.2307 34.2307 36.565 33.3891 36.565H19.2035V19.1927H36.5623V33.3917ZM36.5623 18.755H19.2035V1.43965H33.3891C34.2291 1.44081 35.0345 1.77505 35.6285 2.36909C36.2225 2.96313 36.5568 3.76849 36.5579 4.60859L36.5623 18.755Z" fill="white" stroke="#210A0B" stroke-width="0.6"/>
</svg>
