<svg width="251" height="25" viewBox="0 0 251 25" fill="none" xmlns="http://www.w3.org/2000/svg">
<path d="M0 24.128V0.448H8.48L12.64 16.512H12.704L16.448 0.448H25.12V24.128H19.008V9.472H18.944C18.56 11.904 18.176 13.408 17.664 15.232L15.168 24.128H9.536L7.104 15.232C6.56 13.312 6.272 12.256 5.76 9.152H5.696V24.128H0Z" fill="#210A0B"/>
<path d="M29.0832 24.128V0.448H35.4832V24.128H29.0832Z" fill="#210A0B"/>
<path d="M39.4387 24.128V0.448H45.8387V18.976H55.7907V24.128H39.4387Z" fill="#210A0B"/>
<path d="M60.4195 24.128V5.76H53.6035V0.448H73.6355V5.76H66.8195V24.128H60.4195Z" fill="#210A0B"/>
<path d="M85.6555 24.576C79.9275 24.576 74.0075 20.96 74.0075 12.288C74.0075 3.616 79.9275 0 85.6555 0C91.3515 0 97.2715 3.616 97.2715 12.288C97.2715 20.96 91.3515 24.576 85.6555 24.576ZM85.6555 19.456C88.9835 19.456 90.8715 16.64 90.8715 12.288C90.8715 7.936 88.9835 5.28 85.6555 5.28C82.2955 5.28 80.4075 7.936 80.4075 12.288C80.4075 16.64 82.2955 19.456 85.6555 19.456Z" fill="#210A0B"/>
<path d="M99.925 24.128V0.448H106.229L114.901 13.728H114.965V0.448H120.821V24.128H114.901L105.845 10.88H105.781V24.128H99.925Z" fill="#210A0B"/>
<path d="M129.371 24.128V0.448H137.851C143.003 0.448 145.947 2.432 145.947 6.368C145.947 9.6 143.995 11.328 141.563 11.84V11.904C144.475 12.448 146.715 14.208 146.715 17.664C146.715 21.632 143.771 24.128 138.523 24.128H129.371ZM132.155 10.784H137.595C141.147 10.784 143.195 9.536 143.195 6.816C143.195 4.096 141.499 2.944 137.659 2.944H132.155V10.784ZM132.155 21.664H138.331C142.203 21.664 143.931 20.192 143.931 17.472C143.931 14.496 141.563 13.216 137.755 13.216H132.155V21.664Z" fill="#210A0B"/>
<path d="M152.776 24.128V0.448H160.904C166.28 0.448 169.32 2.72 169.32 7.072C169.32 10.88 167.176 12.864 163.816 13.568L169.64 24.128H166.568L160.904 13.92H155.56V24.128H152.776ZM155.56 11.424H160.744C164.456 11.424 166.536 10.4 166.536 7.168C166.536 4.064 164.488 3.008 160.712 3.008H155.56V11.424Z" fill="#210A0B"/>
<path d="M176.032 24.128V0.448H178.848V24.128H176.032Z" fill="#210A0B"/>
<path d="M186.273 24.128V0.448H192.513C200.129 0.448 204.449 4.288 204.449 12.224C204.449 20.256 200.033 24.128 192.513 24.128H186.273ZM189.089 21.6H192.865C198.593 21.6 201.633 18.816 201.633 12.224C201.633 5.856 198.561 3.04 192.801 3.04H189.089V21.6Z" fill="#210A0B"/>
<path d="M219.164 24.576C212.764 24.576 209.276 19.36 209.276 12.192C209.276 4.672 213.436 0 219.356 0C223.836 0 226.876 2.368 228.124 7.328L225.5 8C224.38 4.192 222.62 2.592 219.324 2.592C215.612 2.592 212.124 5.44 212.124 12.096C212.124 18.72 215.228 22.048 219.42 22.048C223.1 22.048 225.596 19.552 225.66 15.168H220.22V12.8H228.38V24.128H225.916V20.576H225.852C224.924 22.528 222.844 24.576 219.164 24.576Z" fill="#210A0B"/>
<path d="M235.083 24.128V0.448H249.611V3.04H237.899V10.432H246.603V12.96H237.899V21.568H250.283V24.128H235.083Z" fill="#210A0B"/>
</svg>
