<svg width="49" height="48" viewBox="0 0 49 48" fill="none" xmlns="http://www.w3.org/2000/svg">
<path d="M47.5109 21.5988C47.2031 18.5371 46.2978 15.6227 44.8214 12.9395C43.3492 10.1917 41.342 7.79336 38.8565 5.81223C35.3533 2.99671 31.1681 1.28107 26.7533 0.85123C19.3806 0.128386 12.07 2.93647 7.14033 8.37267C2.67671 13.2943 0.582078 19.6734 1.24207 26.3352C2.30819 37.0247 10.8196 45.7174 21.5336 47.0129C21.6982 47.0359 21.8545 47.0582 22.0124 47.0701C22.8101 47.1482 23.6152 47.1876 24.4048 47.1876C26.0479 47.1876 27.6783 47.0166 29.2496 46.6797C40.835 44.2152 48.6857 33.4335 47.5109 21.5988ZM29.0903 45.9345C26.8385 46.4179 24.4833 46.5481 22.0782 46.3108C21.929 46.2997 21.7886 46.2796 21.5712 46.2491C11.2622 45.0042 3.03184 36.5971 2.00071 26.2601C1.36231 19.8147 3.38808 13.6438 7.7054 8.88357C11.9635 4.18881 18.0423 1.49599 24.3821 1.49599C25.1422 1.49599 25.9146 1.53392 26.6788 1.60977C30.9459 2.02474 34.9915 3.68311 38.3797 6.40642C40.7852 8.32359 42.726 10.6431 44.1514 13.3032C45.5797 15.8993 46.4548 18.7163 46.7523 21.6746C47.8887 33.1219 40.296 43.5518 29.0903 45.9345Z" fill="white" stroke="white" stroke-width="0.77464"/>
<rect width="22.7172" height="1.55912" rx="0.779558" transform="matrix(0.7075 -0.706713 0.7075 0.706713 15.7869 31.4399)" fill="white"/>
<rect width="22.7172" height="1.55912" rx="0.779558" transform="matrix(0.7075 0.706713 -0.7075 0.706713 16.8896 15.3857)" fill="white"/>
</svg>
