<svg width="52" height="52" viewBox="0 0 52 52" fill="none" xmlns="http://www.w3.org/2000/svg">
<path fill-rule="evenodd" clip-rule="evenodd" d="M43.7322 8.13615C39.0201 3.41798 32.7531 0.818312 26.0756 0.815918C12.3161 0.815918 1.11787 12.0129 1.11308 25.776C1.11069 30.1758 2.26091 34.4703 4.44525 38.2549L0.903625 51.191L14.1365 47.72C17.7823 49.7093 21.8876 50.7565 26.0648 50.7578H26.0756C39.8327 50.7578 51.0322 39.5595 51.037 25.7964C51.0393 19.1261 48.4456 12.8555 43.7322 8.13735V8.13615ZM26.0756 46.5422H26.0672C22.3448 46.5411 18.6932 45.5404 15.507 43.6505L14.7494 43.2006L6.89651 45.2604L8.99228 37.6038L8.49915 36.8186C6.42253 33.5152 5.32497 29.697 5.32736 25.7773C5.33215 14.3385 14.6392 5.03139 26.0841 5.03139C31.6256 5.03379 36.8346 7.1942 40.752 11.1164C44.6695 15.0375 46.8251 20.2512 46.8227 25.794C46.8178 37.234 37.5108 46.5411 26.0756 46.5411V46.5422ZM37.4557 31.0041C36.8321 30.6918 33.7657 29.1836 33.1935 28.9754C32.6215 28.7671 32.2062 28.663 31.7908 29.2877C31.3755 29.9126 30.1798 31.3177 29.8159 31.733C29.4521 32.1495 29.0882 32.2011 28.4646 31.8886C27.8411 31.5762 25.8314 30.9179 23.4484 28.7934C21.5945 27.1393 20.3424 25.0974 19.9787 24.4726C19.6148 23.8479 19.9404 23.5103 20.2515 23.2003C20.5315 22.9203 20.8751 22.4714 21.1874 22.1075C21.4999 21.7437 21.6028 21.4828 21.811 21.0674C22.0194 20.6509 21.9152 20.2871 21.7596 19.9746C21.604 19.6623 20.3569 16.5922 19.8362 15.3439C19.3299 14.1278 18.8153 14.293 18.4334 14.2727C18.0696 14.2547 17.6543 14.2511 17.2378 14.2511C16.8212 14.2511 16.1461 14.4067 15.574 15.0315C15.002 15.6562 13.3909 17.1655 13.3909 20.2344C13.3909 23.3032 15.6256 26.2704 15.9379 26.6869C16.2503 27.1035 20.3364 33.4027 26.5926 36.1053C28.0805 36.748 29.2426 37.1322 30.1486 37.4195C31.6425 37.8947 33.002 37.8277 34.0769 37.6673C35.275 37.4878 37.7669 36.158 38.2864 34.7013C38.8058 33.2447 38.8058 31.9951 38.6503 31.7354C38.4947 31.4757 38.0782 31.3188 37.4546 31.0065L37.4557 31.0041Z" fill="#25D366"/>
</svg>
